<mxfile host="Electron" modified="2023-07-02T06:57:09.702Z" agent="Mozilla/5.0 (Windows NT 10.0; Win64; x64) AppleWebKit/537.36 (KHTML, like Gecko) draw.io/21.4.0 Chrome/112.0.5615.204 Electron/24.5.1 Safari/537.36" etag="n89JqmmNu9GpVhvWuad-" version="21.4.0" type="device">
  <diagram name="第 1 页" id="_phQiuWxwLlMpPd-WPRQ">
    <mxGraphModel dx="1709" dy="1009" grid="1" gridSize="10" guides="1" tooltips="1" connect="1" arrows="1" fold="1" page="1" pageScale="1" pageWidth="827" pageHeight="1169" math="0" shadow="0">
      <root>
        <mxCell id="0" />
        <mxCell id="1" parent="0" />
        <mxCell id="RSrV-nyugaR3g0JBVqkj-3" value="标题" style="swimlane;fillColor=#d5e8d4;strokeColor=#82b366;" parent="1" vertex="1">
          <mxGeometry x="50" y="30" width="760" height="110" as="geometry">
            <mxRectangle x="40" y="30" width="60" height="30" as="alternateBounds" />
          </mxGeometry>
        </mxCell>
        <mxCell id="pVBMojvnLXcMeyQmgSex-11" value="&lt;h1&gt;有意思的10个游戏机制&lt;/h1&gt;&lt;div&gt;一些游戏体验中发现的有趣的机制，及其分析讨论&lt;/div&gt;" style="text;html=1;spacing=5;spacingTop=-20;whiteSpace=wrap;overflow=hidden;rounded=0;glass=0;align=center;verticalAlign=middle;strokeWidth=1;strokeColor=none;fillColor=none;fontColor=#333333;" parent="RSrV-nyugaR3g0JBVqkj-3" vertex="1">
          <mxGeometry y="30" width="600" height="80" as="geometry" />
        </mxCell>
        <mxCell id="RSrV-nyugaR3g0JBVqkj-2" value="整理：jskyzero&lt;br&gt;日期：2023/07/02" style="text;html=1;strokeColor=none;fillColor=none;align=left;verticalAlign=middle;whiteSpace=wrap;rounded=0;" parent="RSrV-nyugaR3g0JBVqkj-3" vertex="1">
          <mxGeometry x="600" y="52.5" width="120" height="35" as="geometry" />
        </mxCell>
        <mxCell id="RSrV-nyugaR3g0JBVqkj-17" value="概览" style="swimlane;fillColor=#d5e8d4;strokeColor=#82b366;startSize=23;" parent="1" vertex="1">
          <mxGeometry x="50" y="160" width="760" height="190" as="geometry" />
        </mxCell>
        <mxCell id="Wfkw3rdMiEcUbe7vrXaN-1" value="文档" style="swimlane;childLayout=stackLayout;horizontal=1;fillColor=none;horizontalStack=1;resizeParent=1;resizeParentMax=0;resizeLast=0;collapsible=0;strokeColor=none;stackBorder=10;stackSpacing=-12;resizable=1;align=center;points=[];whiteSpace=wrap;html=1;startSize=23;" parent="RSrV-nyugaR3g0JBVqkj-17" vertex="1">
          <mxGeometry x="280" y="39.5" width="472" height="100" as="geometry" />
        </mxCell>
        <mxCell id="Wfkw3rdMiEcUbe7vrXaN-2" value="原则" style="shape=step;perimeter=stepPerimeter;fixedSize=1;points=[];whiteSpace=wrap;html=1;" parent="Wfkw3rdMiEcUbe7vrXaN-1" vertex="1">
          <mxGeometry x="10" y="33" width="100" height="57" as="geometry" />
        </mxCell>
        <mxCell id="Wfkw3rdMiEcUbe7vrXaN-3" value="总体意图" style="shape=step;perimeter=stepPerimeter;fixedSize=1;points=[];whiteSpace=wrap;html=1;" parent="Wfkw3rdMiEcUbe7vrXaN-1" vertex="1">
          <mxGeometry x="98" y="33" width="100" height="57" as="geometry" />
        </mxCell>
        <mxCell id="Wfkw3rdMiEcUbe7vrXaN-4" value="玩法" style="shape=step;perimeter=stepPerimeter;fixedSize=1;points=[];whiteSpace=wrap;html=1;" parent="Wfkw3rdMiEcUbe7vrXaN-1" vertex="1">
          <mxGeometry x="186" y="33" width="100" height="57" as="geometry" />
        </mxCell>
        <mxCell id="Wfkw3rdMiEcUbe7vrXaN-5" value="叙事" style="shape=step;perimeter=stepPerimeter;fixedSize=1;points=[];whiteSpace=wrap;html=1;" parent="Wfkw3rdMiEcUbe7vrXaN-1" vertex="1">
          <mxGeometry x="274" y="33" width="100" height="57" as="geometry" />
        </mxCell>
        <mxCell id="Wfkw3rdMiEcUbe7vrXaN-6" value="制图" style="shape=step;perimeter=stepPerimeter;fixedSize=1;points=[];whiteSpace=wrap;html=1;" parent="Wfkw3rdMiEcUbe7vrXaN-1" vertex="1">
          <mxGeometry x="362" y="33" width="100" height="57" as="geometry" />
        </mxCell>
        <mxCell id="Wfkw3rdMiEcUbe7vrXaN-9" value="&lt;h1&gt;没有绝对，只有适合&lt;/h1&gt;&lt;div&gt;倾向于 ：&lt;/div&gt;&lt;div&gt;【独立完成 or 合作完成】&lt;/div&gt;&lt;div&gt;【制作草图 or 制作白模】&lt;/div&gt;&lt;div&gt;【后续修改少 or 后续持续更新】&lt;br&gt;&lt;/div&gt;&lt;div&gt;【描述意图简要 or 描述意图详细】&lt;/div&gt;&lt;div&gt;结论：完成文档 【快 or 慢】&lt;/div&gt;" style="text;html=1;strokeColor=none;fillColor=none;spacing=5;spacingTop=-20;whiteSpace=wrap;overflow=hidden;rounded=0;" parent="RSrV-nyugaR3g0JBVqkj-17" vertex="1">
          <mxGeometry x="20" y="35" width="250" height="145" as="geometry" />
        </mxCell>
        <mxCell id="RSrV-nyugaR3g0JBVqkj-64" value="原则" style="swimlane;fillColor=#dae8fc;strokeColor=#6c8ebf;" parent="1" vertex="1">
          <mxGeometry x="50" y="370" width="240" height="220" as="geometry" />
        </mxCell>
        <mxCell id="Wfkw3rdMiEcUbe7vrXaN-12" value="" style="triangle;whiteSpace=wrap;html=1;rotation=-90;" parent="RSrV-nyugaR3g0JBVqkj-64" vertex="1">
          <mxGeometry x="35.63" y="23.120000000000005" width="175" height="183.75" as="geometry" />
        </mxCell>
        <mxCell id="RSrV-nyugaR3g0JBVqkj-80" value="4、用图说明" style="rounded=0;whiteSpace=wrap;html=1;align=left;" parent="RSrV-nyugaR3g0JBVqkj-64" vertex="1">
          <mxGeometry x="120" y="137.49" width="100" height="20" as="geometry" />
        </mxCell>
        <mxCell id="Wfkw3rdMiEcUbe7vrXaN-13" value="3、术语清晰一致" style="rounded=0;whiteSpace=wrap;html=1;align=left;" parent="RSrV-nyugaR3g0JBVqkj-64" vertex="1">
          <mxGeometry x="120" y="107.49" width="100" height="20" as="geometry" />
        </mxCell>
        <mxCell id="Wfkw3rdMiEcUbe7vrXaN-14" value="2、简约易懂" style="rounded=0;whiteSpace=wrap;html=1;align=left;" parent="RSrV-nyugaR3g0JBVqkj-64" vertex="1">
          <mxGeometry x="120" y="77.49" width="100" height="20" as="geometry" />
        </mxCell>
        <mxCell id="Wfkw3rdMiEcUbe7vrXaN-15" value="1、了解主要受众" style="rounded=0;whiteSpace=wrap;html=1;align=left;" parent="RSrV-nyugaR3g0JBVqkj-64" vertex="1">
          <mxGeometry x="120" y="47.49" width="100" height="20" as="geometry" />
        </mxCell>
        <mxCell id="vTdBXP3f8j7jQERfPTc3-1" value="5、持续更新" style="rounded=0;whiteSpace=wrap;html=1;align=left;" parent="RSrV-nyugaR3g0JBVqkj-64" vertex="1">
          <mxGeometry x="120" y="167.49" width="100" height="20" as="geometry" />
        </mxCell>
        <mxCell id="RSrV-nyugaR3g0JBVqkj-82" value="总体意图" style="swimlane;fillColor=#dae8fc;strokeColor=#6c8ebf;startSize=23;" parent="1" vertex="1">
          <mxGeometry x="310" y="370" width="500" height="60" as="geometry" />
        </mxCell>
        <mxCell id="RSrV-nyugaR3g0JBVqkj-87" value="设定" style="rounded=0;whiteSpace=wrap;html=1;" parent="RSrV-nyugaR3g0JBVqkj-82" vertex="1">
          <mxGeometry x="17.5" y="30" width="110" height="20" as="geometry" />
        </mxCell>
        <mxCell id="RSrV-nyugaR3g0JBVqkj-101" value="阶段" style="rounded=0;whiteSpace=wrap;html=1;" parent="RSrV-nyugaR3g0JBVqkj-82" vertex="1">
          <mxGeometry x="135" y="30" width="110" height="20" as="geometry" />
        </mxCell>
        <mxCell id="RSrV-nyugaR3g0JBVqkj-102" value="用途" style="rounded=0;whiteSpace=wrap;html=1;" parent="RSrV-nyugaR3g0JBVqkj-82" vertex="1">
          <mxGeometry x="252.5" y="30" width="110" height="20" as="geometry" />
        </mxCell>
        <mxCell id="vTdBXP3f8j7jQERfPTc3-2" value="结构" style="rounded=0;whiteSpace=wrap;html=1;" parent="RSrV-nyugaR3g0JBVqkj-82" vertex="1">
          <mxGeometry x="370" y="30" width="110" height="20" as="geometry" />
        </mxCell>
        <mxCell id="RSrV-nyugaR3g0JBVqkj-105" value="细分预概念" style="swimlane;fillColor=#dae8fc;strokeColor=#6c8ebf;" parent="1" vertex="1">
          <mxGeometry x="310" y="600" width="500" height="70" as="geometry" />
        </mxCell>
        <mxCell id="Wfkw3rdMiEcUbe7vrXaN-30" value="" style="shape=table;startSize=0;container=1;collapsible=0;childLayout=tableLayout;fontSize=12;" parent="RSrV-nyugaR3g0JBVqkj-105" vertex="1">
          <mxGeometry x="10" y="35" width="480" height="24" as="geometry" />
        </mxCell>
        <mxCell id="Wfkw3rdMiEcUbe7vrXaN-31" value="" style="shape=tableRow;horizontal=0;startSize=0;swimlaneHead=0;swimlaneBody=0;strokeColor=inherit;top=0;left=0;bottom=0;right=0;collapsible=0;dropTarget=0;fillColor=none;points=[[0,0.5],[1,0.5]];portConstraint=eastwest;fontSize=16;" parent="Wfkw3rdMiEcUbe7vrXaN-30" vertex="1">
          <mxGeometry width="480" height="24" as="geometry" />
        </mxCell>
        <mxCell id="Wfkw3rdMiEcUbe7vrXaN-32" value="布局" style="shape=partialRectangle;html=1;whiteSpace=wrap;connectable=0;strokeColor=inherit;overflow=hidden;fillColor=none;top=0;left=0;bottom=0;right=0;pointerEvents=1;fontSize=12;" parent="Wfkw3rdMiEcUbe7vrXaN-31" vertex="1">
          <mxGeometry width="119" height="24" as="geometry">
            <mxRectangle width="119" height="24" as="alternateBounds" />
          </mxGeometry>
        </mxCell>
        <mxCell id="Wfkw3rdMiEcUbe7vrXaN-33" value="生态" style="shape=partialRectangle;html=1;whiteSpace=wrap;connectable=0;strokeColor=inherit;overflow=hidden;fillColor=none;top=0;left=0;bottom=0;right=0;pointerEvents=1;fontSize=12;" parent="Wfkw3rdMiEcUbe7vrXaN-31" vertex="1">
          <mxGeometry x="119" width="121" height="24" as="geometry">
            <mxRectangle width="121" height="24" as="alternateBounds" />
          </mxGeometry>
        </mxCell>
        <mxCell id="Wfkw3rdMiEcUbe7vrXaN-34" value="地标" style="shape=partialRectangle;html=1;whiteSpace=wrap;connectable=0;strokeColor=inherit;overflow=hidden;fillColor=none;top=0;left=0;bottom=0;right=0;pointerEvents=1;fontSize=12;" parent="Wfkw3rdMiEcUbe7vrXaN-31" vertex="1">
          <mxGeometry x="240" width="121" height="24" as="geometry">
            <mxRectangle width="121" height="24" as="alternateBounds" />
          </mxGeometry>
        </mxCell>
        <mxCell id="Wfkw3rdMiEcUbe7vrXaN-43" value="参考" style="shape=partialRectangle;html=1;whiteSpace=wrap;connectable=0;strokeColor=inherit;overflow=hidden;fillColor=none;top=0;left=0;bottom=0;right=0;pointerEvents=1;fontSize=12;" parent="Wfkw3rdMiEcUbe7vrXaN-31" vertex="1">
          <mxGeometry x="361" width="119" height="24" as="geometry">
            <mxRectangle width="119" height="24" as="alternateBounds" />
          </mxGeometry>
        </mxCell>
        <mxCell id="RSrV-nyugaR3g0JBVqkj-123" value="概览" style="rounded=0;whiteSpace=wrap;html=1;fillColor=#d5e8d4;strokeColor=#82b366;" parent="1" vertex="1">
          <mxGeometry x="20" y="30" width="20" height="320" as="geometry" />
        </mxCell>
        <mxCell id="Wfkw3rdMiEcUbe7vrXaN-445" value="编写文档" style="rounded=0;whiteSpace=wrap;html=1;fillColor=#dae8fc;strokeColor=#6c8ebf;" parent="1" vertex="1">
          <mxGeometry x="20" y="370" width="20" height="300" as="geometry" />
        </mxCell>
        <mxCell id="vTdBXP3f8j7jQERfPTc3-3" value="玩法" style="swimlane;fillColor=#dae8fc;strokeColor=#6c8ebf;startSize=23;" parent="1" vertex="1">
          <mxGeometry x="310" y="450" width="500" height="60" as="geometry" />
        </mxCell>
        <mxCell id="vTdBXP3f8j7jQERfPTc3-4" value="路径" style="rounded=0;whiteSpace=wrap;html=1;" parent="vTdBXP3f8j7jQERfPTc3-3" vertex="1">
          <mxGeometry x="17.5" y="30" width="110" height="20" as="geometry" />
        </mxCell>
        <mxCell id="vTdBXP3f8j7jQERfPTc3-5" value="难度" style="rounded=0;whiteSpace=wrap;html=1;" parent="vTdBXP3f8j7jQERfPTc3-3" vertex="1">
          <mxGeometry x="135" y="30" width="110" height="20" as="geometry" />
        </mxCell>
        <mxCell id="vTdBXP3f8j7jQERfPTc3-6" value="奖励" style="rounded=0;whiteSpace=wrap;html=1;" parent="vTdBXP3f8j7jQERfPTc3-3" vertex="1">
          <mxGeometry x="252.5" y="30" width="110" height="20" as="geometry" />
        </mxCell>
        <mxCell id="vTdBXP3f8j7jQERfPTc3-7" value="玩法元素" style="rounded=0;whiteSpace=wrap;html=1;" parent="vTdBXP3f8j7jQERfPTc3-3" vertex="1">
          <mxGeometry x="370" y="30" width="110" height="20" as="geometry" />
        </mxCell>
        <mxCell id="vTdBXP3f8j7jQERfPTc3-8" value="叙事" style="swimlane;fillColor=#dae8fc;strokeColor=#6c8ebf;startSize=23;" parent="1" vertex="1">
          <mxGeometry x="310" y="525" width="500" height="65" as="geometry" />
        </mxCell>
        <mxCell id="vTdBXP3f8j7jQERfPTc3-9" value="背景" style="rounded=0;whiteSpace=wrap;html=1;" parent="vTdBXP3f8j7jQERfPTc3-8" vertex="1">
          <mxGeometry x="5" y="35" width="90" height="20" as="geometry" />
        </mxCell>
        <mxCell id="vTdBXP3f8j7jQERfPTc3-10" value="主题" style="rounded=0;whiteSpace=wrap;html=1;" parent="vTdBXP3f8j7jQERfPTc3-8" vertex="1">
          <mxGeometry x="105" y="35" width="90" height="20" as="geometry" />
        </mxCell>
        <mxCell id="vTdBXP3f8j7jQERfPTc3-11" value="逻辑" style="rounded=0;whiteSpace=wrap;html=1;" parent="vTdBXP3f8j7jQERfPTc3-8" vertex="1">
          <mxGeometry x="205" y="35" width="90" height="20" as="geometry" />
        </mxCell>
        <mxCell id="vTdBXP3f8j7jQERfPTc3-12" value="主要派系" style="rounded=0;whiteSpace=wrap;html=1;" parent="vTdBXP3f8j7jQERfPTc3-8" vertex="1">
          <mxGeometry x="305" y="35" width="90" height="20" as="geometry" />
        </mxCell>
        <mxCell id="vTdBXP3f8j7jQERfPTc3-14" value="主要任务" style="rounded=0;whiteSpace=wrap;html=1;" parent="vTdBXP3f8j7jQERfPTc3-8" vertex="1">
          <mxGeometry x="405" y="35" width="90" height="20" as="geometry" />
        </mxCell>
        <mxCell id="vTdBXP3f8j7jQERfPTc3-15" value="绘图" style="swimlane;fillColor=#dae8fc;strokeColor=#6c8ebf;" parent="1" vertex="1">
          <mxGeometry x="50" y="600" width="240" height="70" as="geometry" />
        </mxCell>
        <mxCell id="vTdBXP3f8j7jQERfPTc3-16" value="" style="shape=table;startSize=0;container=1;collapsible=0;childLayout=tableLayout;fontSize=12;" parent="vTdBXP3f8j7jQERfPTc3-15" vertex="1">
          <mxGeometry x="10" y="35" width="220" height="25" as="geometry" />
        </mxCell>
        <mxCell id="vTdBXP3f8j7jQERfPTc3-17" value="" style="shape=tableRow;horizontal=0;startSize=0;swimlaneHead=0;swimlaneBody=0;strokeColor=inherit;top=0;left=0;bottom=0;right=0;collapsible=0;dropTarget=0;fillColor=none;points=[[0,0.5],[1,0.5]];portConstraint=eastwest;fontSize=16;" parent="vTdBXP3f8j7jQERfPTc3-16" vertex="1">
          <mxGeometry width="220" height="25" as="geometry" />
        </mxCell>
        <mxCell id="vTdBXP3f8j7jQERfPTc3-18" value="2D图" style="shape=partialRectangle;html=1;whiteSpace=wrap;connectable=0;strokeColor=inherit;overflow=hidden;fillColor=none;top=0;left=0;bottom=0;right=0;pointerEvents=1;fontSize=12;" parent="vTdBXP3f8j7jQERfPTc3-17" vertex="1">
          <mxGeometry width="109" height="25" as="geometry">
            <mxRectangle width="109" height="25" as="alternateBounds" />
          </mxGeometry>
        </mxCell>
        <mxCell id="vTdBXP3f8j7jQERfPTc3-19" value="布局设计" style="shape=partialRectangle;html=1;whiteSpace=wrap;connectable=0;strokeColor=inherit;overflow=hidden;fillColor=none;top=0;left=0;bottom=0;right=0;pointerEvents=1;fontSize=12;" parent="vTdBXP3f8j7jQERfPTc3-17" vertex="1">
          <mxGeometry x="109" width="111" height="25" as="geometry">
            <mxRectangle width="111" height="25" as="alternateBounds" />
          </mxGeometry>
        </mxCell>
      </root>
    </mxGraphModel>
  </diagram>
</mxfile>
